<?xml version="1.0" encoding="utf-8"?>
<svg width="545.7002563476562" height="97.30117797851562" viewBox="288.254 337.074 545.7 97.3012" xmlns="http://www.w3.org/2000/svg">
  <path id="path24" style="fill:#2e67b1;fill-opacity:1;fill-rule:nonzero;stroke:none" d="m 0,0 v 30.939 h 3.681 l 0.965,-3.943 c 3.169,2.625 6.649,3.943 10.441,3.943 7.714,0 11.577,-3.843 11.577,-11.517 V 0 h -5.452 v 19.513 c 0,4.596 -2.293,6.889 -6.869,6.889 -3.118,0 -6.086,-1.307 -8.902,-3.922 L 5.441,0 Z m 41.54,0 h -5.452 v 30.939 h 5.452 z m 0,36.983 h -5.452 v 5.16 H 41.54 Z M 56.415,5.392 c 1.791,-0.564 3.963,-0.856 6.518,-0.856 6.88,0 10.309,3.923 10.309,11.758 0,6.619 -3.108,9.927 -9.333,9.927 -2.837,0 -5.331,-0.523 -7.494,-1.589 z m -5.441,36.751 h 5.441 V 29.47 c 2.344,0.976 4.848,1.469 7.523,1.469 9.777,0 14.675,-4.949 14.675,-14.846 C 78.613,5.361 73.474,0 63.194,0 58.759,0 54.685,0.423 50.974,1.268 Z M 91.417,5.392 c 1.791,-0.564 3.963,-0.856 6.518,-0.856 6.879,0 10.309,3.923 10.309,11.758 0,6.619 -3.108,9.927 -9.333,9.927 -2.837,0 -5.331,-0.523 -7.494,-1.589 z m -5.441,36.751 h 5.441 V 29.47 c 2.344,0.976 4.848,1.469 7.523,1.469 9.777,0 14.675,-4.949 14.675,-14.846 C 113.615,5.361 108.476,0 98.196,0 93.761,0 89.687,0.423 85.976,1.268 Z M 126.721,0 h -5.451 v 42.143 h 5.451 z m 21.885,30.939 c 8.802,0 13.207,-4.346 13.207,-13.056 0,-1.237 -0.09,-2.564 -0.272,-3.972 h -21.715 c 0,-6.327 3.692,-9.485 11.084,-9.485 3.511,0 6.639,0.392 9.364,1.177 V 1.177 C 157.549,0.393 154.229,0 150.316,0 c -10.63,0 -15.941,5.271 -15.941,15.821 0,10.078 4.747,15.118 14.231,15.118 m -8.78,-12.492 h 16.736 c -0.12,5.421 -2.765,8.136 -7.956,8.136 -5.501,0 -8.427,-2.715 -8.78,-8.136" transform="matrix(1.3333332538604736, 0, 0, -1.3333332538604736, 390.94663197120104, 411.92004635612096)"/>
  <path id="path28" style="fill:#db1d1d;fill-opacity:1;fill-rule:nonzero;stroke:none" d="m 0,0 c -2.555,-0.594 -5.301,-0.886 -8.248,-0.886 -11.003,0 -16.505,5.352 -16.505,16.063 0,9.917 5.502,14.876 16.505,14.876 2.947,0 5.693,-0.292 8.248,-0.886 v -4.415 c -2.555,0.583 -5.401,0.885 -8.55,0.885 -7.171,0 -10.752,-3.49 -10.752,-10.46 0,-7.765 3.581,-11.637 10.752,-11.637 3.149,0 5.995,0.292 8.55,0.875 z M 10.902,14.705 C 10.902,7.262 14,3.54 20.187,3.54 c 6.185,0 9.283,3.722 9.283,11.165 0,7.281 -3.098,10.932 -9.283,10.932 -6.187,0 -9.285,-3.651 -9.285,-10.932 M 5.451,14.583 c 0,10.32 4.908,15.47 14.736,15.47 9.816,0 14.734,-5.15 14.734,-15.47 0,-10.289 -4.918,-15.438 -14.734,-15.438 -9.788,0 -14.696,5.149 -14.736,15.438 M 42.294,-0.886 v 30.939 h 3.681 l 0.916,-3.883 c 2.956,2.585 6.195,3.883 9.685,3.883 4.486,0 7.533,-1.408 9.173,-4.244 3.35,2.836 6.759,4.244 10.219,4.244 7.111,0 10.672,-3.913 10.672,-11.758 V -0.886 h -5.452 v 19.483 c 0,4.616 -1.952,6.92 -5.834,6.92 -2.907,0 -5.632,-1.338 -8.166,-4.003 v -22.4 h -5.453 v 19.392 c 0,4.677 -1.921,7.011 -5.772,7.011 -3.068,0 -5.804,-1.338 -8.228,-4.003 v -22.4 z m 53.186,0 v 30.939 h 3.681 l 0.916,-3.883 c 2.957,2.585 6.195,3.883 9.686,3.883 4.485,0 7.533,-1.408 9.173,-4.244 3.349,2.836 6.758,4.244 10.218,4.244 7.112,0 10.672,-3.913 10.672,-11.758 V -0.886 h -5.452 v 19.483 c 0,4.616 -1.951,6.92 -5.833,6.92 -2.907,0 -5.633,-1.338 -8.167,-4.003 v -22.4 h -5.451 v 19.392 c 0,4.677 -1.922,7.011 -5.774,7.011 -3.068,0 -5.803,-1.338 -8.227,-4.003 v -22.4 z" transform="matrix(1.3333332538604736, 0, 0, -1.3333332538604736, 647.5194112746249, 410.73909753328184)"/>
  <path id="path32" style="fill:#2e67b1;fill-opacity:1;fill-rule:evenodd;stroke:none" d="M 0,0 C 0.818,0 1.481,0.664 1.481,1.481 1.481,2.3 0.818,2.963 0,2.963 -0.818,2.963 -1.481,2.3 -1.481,1.481 -1.481,0.664 -0.818,0 0,0" transform="matrix(1.3333332538604736, 0, 0, -1.3333332538604736, 338.9153036923016, 430.5776380174793)"/>
  <path id="path36" style="fill:#2e67b1;fill-opacity:1;fill-rule:evenodd;stroke:none" d="M 0,0 C 1.168,0 2.115,0.947 2.115,2.116 2.115,3.284 1.168,4.231 0,4.231 -1.169,4.231 -2.116,3.284 -2.116,2.116 -2.116,0.947 -1.169,0 0,0" transform="matrix(1.3333332538604736, 0, 0, -1.3333332538604736, 338.9153036923016, 419.57511588682246)"/>
  <path id="path40" style="fill:#2e67b1;fill-opacity:1;fill-rule:evenodd;stroke:none" d="M 0,0 C 1.694,0 3.067,1.373 3.067,3.067 3.067,4.762 1.694,6.135 0,6.135 -1.695,6.135 -3.068,4.762 -3.068,3.067 -3.068,1.373 -1.695,0 0,0" transform="matrix(1.3333332538604736, 0, 0, -1.3333332538604736, 338.9153036923016, 408.38883725670166)"/>
  <path id="path44" style="fill:#2e67b1;fill-opacity:1;fill-rule:evenodd;stroke:none" d="M 0,0 C 1.986,0 3.597,1.61 3.597,3.596 3.597,5.583 1.986,7.193 0,7.193 -1.987,7.193 -3.597,5.583 -3.597,3.596 -3.597,1.61 -1.987,0 0,0" transform="matrix(1.3333332538604736, 0, 0, -1.3333332538604736, 338.9153036923016, 395.3595004682065)"/>
  <path id="path48" style="fill:#2e67b1;fill-opacity:1;fill-rule:evenodd;stroke:none" d="M 0,0 C 1.169,0 2.116,0.947 2.116,2.116 2.116,3.284 1.169,4.231 0,4.231 -1.168,4.231 -2.115,3.284 -2.115,2.116 -2.115,0.947 -1.168,0 0,0" transform="matrix(1.3333332538604736, 0, 0, -1.3333332538604736, 352.9746290261755, 419.57511588682246)"/>
  <path id="path52" style="fill:#2e67b1;fill-opacity:1;fill-rule:evenodd;stroke:none" d="M 0,0 C 1.256,0 2.274,1.019 2.274,2.274 2.274,3.53 1.256,4.549 0,4.549 -1.256,4.549 -2.274,3.53 -2.274,2.274 -2.274,1.019 -1.256,0 0,0" transform="matrix(1.3333332538604736, 0, 0, -1.3333332538604736, 352.9746290261755, 407.3315049629527)"/>
  <path id="path56" style="fill:#2e67b1;fill-opacity:1;fill-rule:evenodd;stroke:none" d="M 0,0 C 1.986,0 3.597,1.61 3.597,3.596 3.597,5.583 1.986,7.193 0,7.193 -1.987,7.193 -3.597,5.583 -3.597,3.596 -3.597,1.61 -1.987,0 0,0" transform="matrix(1.3333332538604736, 0, 0, -1.3333332538604736, 352.9746290261755, 395.3595004682065)"/>
  <path id="path60" style="fill:#2e67b1;fill-opacity:1;fill-rule:evenodd;stroke:none" d="M 0,0 C 1.256,0 2.274,1.019 2.274,2.274 2.274,3.53 1.256,4.549 0,4.549 -1.256,4.549 -2.274,3.53 -2.274,2.274 -2.274,1.019 -1.256,0 0,0" transform="matrix(1.3333332538604736, 0, 0, -1.3333332538604736, 366.2206406064433, 407.3315049629527)"/>
  <path id="path64" style="fill:#2e67b1;fill-opacity:1;fill-rule:evenodd;stroke:none" d="M 0,0 C 1.987,0 3.597,1.61 3.597,3.596 3.597,5.583 1.987,7.193 0,7.193 -1.986,7.193 -3.597,5.583 -3.597,3.596 -3.597,1.61 -1.986,0 0,0" transform="matrix(1.3333332538604736, 0, 0, -1.3333332538604736, 366.2206406064433, 395.3595004682065)"/>
  <path id="path68" style="fill:#2e67b1;fill-opacity:1;fill-rule:evenodd;stroke:none" d="M 0,0 C -0.818,0 -1.481,0.664 -1.481,1.481 -1.481,2.3 -0.818,2.963 0,2.963 0.818,2.963 1.481,2.3 1.481,1.481 1.481,0.664 0.818,0 0,0" transform="matrix(1.3333332538604736, 0, 0, -1.3333332538604736, 322.58597930753234, 430.5776380174793)"/>
  <path id="path72" style="fill:#2e67b1;fill-opacity:1;fill-rule:evenodd;stroke:none" d="m 0,0 c -1.169,0 -2.116,0.947 -2.116,2.116 0,1.168 0.947,2.115 2.116,2.115 1.168,0 2.115,-0.947 2.115,-2.115 C 2.115,0.947 1.168,0 0,0" transform="matrix(1.3333332538604736, 0, 0, -1.3333332538604736, 322.58597930753234, 419.57511588682246)"/>
  <path id="path76" style="fill:#2e67b1;fill-opacity:1;fill-rule:evenodd;stroke:none" d="m 0,0 c -1.695,0 -3.068,1.373 -3.068,3.067 0,1.695 1.373,3.068 3.068,3.068 1.694,0 3.067,-1.373 3.067,-3.068 C 3.067,1.373 1.694,0 0,0" transform="matrix(1.3333332538604736, 0, 0, -1.3333332538604736, 322.58597930753234, 408.38883725670166)"/>
  <path id="path80" style="fill:#2e67b1;fill-opacity:1;fill-rule:evenodd;stroke:none" d="m 0,0 c -1.987,0 -3.597,1.61 -3.597,3.596 0,1.987 1.61,3.597 3.597,3.597 1.986,0 3.597,-1.61 3.597,-3.597 C 3.597,1.61 1.986,0 0,0" transform="matrix(1.3333332538604736, 0, 0, -1.3333332538604736, 322.58597930753234, 395.3595004682065)"/>
  <path id="path84" style="fill:#2e67b1;fill-opacity:1;fill-rule:evenodd;stroke:none" d="m 0,0 c -1.169,0 -2.116,0.947 -2.116,2.116 0,1.168 0.947,2.115 2.116,2.115 1.168,0 2.115,-0.947 2.115,-2.115 C 2.115,0.947 1.168,0 0,0" transform="matrix(1.3333332538604736, 0, 0, -1.3333332538604736, 308.52598258697975, 419.57511588682246)"/>
  <path id="path88" style="fill:#2e67b1;fill-opacity:1;fill-rule:evenodd;stroke:none" d="M 0,0 C -1.256,0 -2.274,1.019 -2.274,2.274 -2.274,3.53 -1.256,4.549 0,4.549 1.256,4.549 2.274,3.53 2.274,2.274 2.274,1.019 1.256,0 0,0" transform="matrix(1.3333332538604736, 0, 0, -1.3333332538604736, 308.52598258697975, 407.3315049629527)"/>
  <path id="path92" style="fill:#2e67b1;fill-opacity:1;fill-rule:evenodd;stroke:none" d="m 0,0 c -1.987,0 -3.597,1.61 -3.597,3.596 0,1.987 1.61,3.597 3.597,3.597 1.986,0 3.597,-1.61 3.597,-3.597 C 3.597,1.61 1.986,0 0,0" transform="matrix(1.3333332538604736, 0, 0, -1.3333332538604736, 308.52598258697975, 395.3595004682065)"/>
  <path id="path96" style="fill:#2e67b1;fill-opacity:1;fill-rule:evenodd;stroke:none" d="M 0,0 C -1.256,0 -2.274,1.019 -2.274,2.274 -2.274,3.53 -1.256,4.549 0,4.549 1.256,4.549 2.274,3.53 2.274,2.274 2.274,1.019 1.256,0 0,0" transform="matrix(1.3333332538604736, 0, 0, -1.3333332538604736, 295.2799913517629, 407.3315049629527)"/>
  <path id="path100" style="fill:#2e67b1;fill-opacity:1;fill-rule:evenodd;stroke:none" d="m 0,0 c -1.986,0 -3.597,1.61 -3.597,3.596 0,1.987 1.611,3.597 3.597,3.597 1.987,0 3.597,-1.61 3.597,-3.597 C 3.597,1.61 1.987,0 0,0" transform="matrix(1.3333332538604736, 0, 0, -1.3333332538604736, 295.2799913517629, 395.3595004682065)"/>
  <path id="path104" style="fill:#2e67b1;fill-opacity:1;fill-rule:evenodd;stroke:none" d="m 0,0 c 0.818,0 1.481,-0.663 1.481,-1.481 0,-0.818 -0.663,-1.481 -1.481,-1.481 -0.818,0 -1.481,0.663 -1.481,1.481 C -1.481,-0.663 -0.818,0 0,0" transform="matrix(1.3333332538604736, 0, 0, -1.3333332538604736, 338.9153036923016, 337.07377803084813)"/>
  <path id="path108" style="fill:#2e67b1;fill-opacity:1;fill-rule:evenodd;stroke:none" d="m 0,0 c 1.168,0 2.115,-0.947 2.115,-2.115 0,-1.169 -0.947,-2.116 -2.115,-2.116 -1.169,0 -2.116,0.947 -2.116,2.116 C -2.116,-0.947 -1.169,0 0,0" transform="matrix(1.3333332538604736, 0, 0, -1.3333332538604736, 338.9153036923016, 348.07630016150506)"/>
  <path id="path112" style="fill:#2e67b1;fill-opacity:1;fill-rule:evenodd;stroke:none" d="m 0,0 c 1.694,0 3.067,-1.374 3.067,-3.068 0,-1.694 -1.373,-3.068 -3.067,-3.068 -1.695,0 -3.068,1.374 -3.068,3.068 C -3.068,-1.374 -1.695,0 0,0" transform="matrix(1.3333332538604736, 0, 0, -1.3333332538604736, 338.9153036923016, 359.26123601826833)"/>
  <path id="path116" style="fill:#2e67b1;fill-opacity:1;fill-rule:evenodd;stroke:none" d="m 0,0 c 1.986,0 3.597,-1.61 3.597,-3.597 0,-1.986 -1.611,-3.596 -3.597,-3.596 -1.987,0 -3.597,1.61 -3.597,3.596 C -3.597,-1.61 -1.987,0 0,0" transform="matrix(1.3333332538604736, 0, 0, -1.3333332538604736, 338.9153036923016, 372.2912238483913)"/>
  <path id="path120" style="fill:#2e67b1;fill-opacity:1;fill-rule:evenodd;stroke:none" d="m 0,0 c 1.169,0 2.116,-0.947 2.116,-2.115 0,-1.169 -0.947,-2.116 -2.116,-2.116 -1.168,0 -2.115,0.947 -2.115,2.116 C -2.115,-0.947 -1.168,0 0,0" transform="matrix(1.3333332538604736, 0, 0, -1.3333332538604736, 352.9746290261755, 348.07630016150506)"/>
  <path id="path124" style="fill:#2e67b1;fill-opacity:1;fill-rule:evenodd;stroke:none" d="M 0,0 C 1.256,0 2.274,-1.018 2.274,-2.274 2.274,-3.53 1.256,-4.548 0,-4.548 c -1.256,0 -2.274,1.018 -2.274,2.274 C -2.274,-1.018 -1.256,0 0,0" transform="matrix(1.3333332538604736, 0, 0, -1.3333332538604736, 352.9746290261755, 360.3197890150695)"/>
  <path id="path128" style="fill:#2e67b1;fill-opacity:1;fill-rule:evenodd;stroke:none" d="m 0,0 c 1.986,0 3.597,-1.61 3.597,-3.597 0,-1.986 -1.611,-3.596 -3.597,-3.596 -1.987,0 -3.597,1.61 -3.597,3.596 C -3.597,-1.61 -1.987,0 0,0" transform="matrix(1.3333332538604736, 0, 0, -1.3333332538604736, 352.9746290261755, 372.2912238483913)"/>
  <path id="path132" style="fill:#2e67b1;fill-opacity:1;fill-rule:evenodd;stroke:none" d="M 0,0 C 1.256,0 2.274,-1.018 2.274,-2.274 2.274,-3.53 1.256,-4.548 0,-4.548 c -1.256,0 -2.274,1.018 -2.274,2.274 C -2.274,-1.018 -1.256,0 0,0" transform="matrix(1.3333332538604736, 0, 0, -1.3333332538604736, 366.2206406064433, 360.3197890150695)"/>
  <path id="path136" style="fill:#2e67b1;fill-opacity:1;fill-rule:evenodd;stroke:none" d="m 0,0 c 1.987,0 3.597,-1.61 3.597,-3.597 0,-1.986 -1.61,-3.596 -3.597,-3.596 -1.986,0 -3.597,1.61 -3.597,3.596 C -3.597,-1.61 -1.986,0 0,0" transform="matrix(1.3333332538604736, 0, 0, -1.3333332538604736, 366.2206406064433, 372.2912238483913)"/>
  <path id="path140" style="fill:#db1d1d;fill-opacity:1;fill-rule:evenodd;stroke:none" d="m 0,0 c -1.987,0 -3.597,-1.61 -3.597,-3.597 0,-1.986 1.61,-3.596 3.597,-3.596 1.986,0 3.597,1.61 3.597,3.596 C 3.597,-1.61 1.986,0 0,0" transform="matrix(1.3333332538604736, 0, 0, -1.3333332538604736, 322.58597930753234, 372.2912238483913)"/>
  <path id="path144" style="fill:#db1d1d;fill-opacity:1;fill-rule:evenodd;stroke:none" d="m 0,0 c -2.379,-2.028 -3.683,-5.044 -3.577,-8.281 0.03,-0.999 0.864,-1.826 1.858,-1.844 0.442,-0.014 0.838,0.141 1.144,0.402 0.384,0.328 0.617,0.821 0.603,1.38 -0.077,2.158 0.793,4.17 2.378,5.522 1.584,1.351 3.708,1.892 5.827,1.475 0.549,-0.103 1.074,0.051 1.457,0.378 0.307,0.26 0.521,0.627 0.578,1.066 C 10.408,1.083 9.722,2.036 8.74,2.223 5.562,2.839 2.378,2.029 0,0" transform="matrix(1.3333332538604736, 0, 0, -1.3333332538604736, 312.5449235909218, 364.37325557033904)"/>
  <path id="path148" style="fill:#db1d1d;fill-opacity:1;fill-rule:evenodd;stroke:none" d="m 0,0 c -3.959,-3.376 -6.133,-8.405 -5.959,-13.799 0.034,-1.003 0.864,-1.834 1.859,-1.851 0.441,-0.006 0.841,0.146 1.145,0.406 0.381,0.324 0.616,0.817 0.6,1.374 -0.14,4.32 1.592,8.346 4.761,11.048 3.169,2.703 7.417,3.776 11.659,2.956 0.55,-0.103 1.073,0.051 1.453,0.375 0.306,0.261 0.522,0.626 0.583,1.068 0.14,0.986 -0.546,1.939 -1.536,2.127 C 9.267,4.728 3.959,3.376 0,0" transform="matrix(1.3333332538604736, 0, 0, -1.3333332538604736, 306.12105515870996, 356.84070393598086)"/>
  <path id="path152" style="fill:#db1d1d;fill-opacity:1;fill-rule:evenodd;stroke:none" d="m 0,0 c -7.418,1.432 -14.854,-0.457 -20.397,-5.185 -5.544,-4.727 -8.584,-11.772 -8.342,-19.324 0.033,-1.003 0.868,-1.829 1.863,-1.847 0.437,-0.009 0.836,0.142 1.141,0.402 0.384,0.328 0.62,0.822 0.599,1.375 -0.212,6.481 2.391,12.519 7.144,16.573 4.75,4.05 11.126,5.669 17.488,4.441 0.548,-0.112 1.072,0.043 1.457,0.37 0.305,0.26 0.517,0.631 0.578,1.065 C 1.67,-1.146 0.985,-0.192 0,0" transform="matrix(1.3333332538604736, 0, 0, -1.3333332538604736, 326.8951831522462, 342.3966943802443)"/>
  <path id="path338" style="fill:#2e67b1;fill-opacity:1;fill-rule:evenodd;stroke:none" d="m 0,0 c 0.818,0 1.481,-0.638 1.481,-1.425 0,-0.786 -0.663,-1.424 -1.481,-1.424 -0.818,0 -1.481,0.638 -1.481,1.424 C -1.481,-0.638 -0.818,0 0,0" transform="matrix(1.3333332538604736, 0, 0, -1.3333332538604736, 338.9153036923016, 430.5762952441218)"/>
  <path id="path914" style="fill:#2e67b1;fill-opacity:1;fill-rule:evenodd;stroke:none" d="m 0,0 c -0.818,0 -1.481,-0.638 -1.481,-1.425 0,-0.786 0.663,-1.424 1.481,-1.424 0.818,0 1.481,0.638 1.481,1.424 C 1.481,-0.638 0.818,0 0,0" transform="matrix(1.3333332538604736, 0, 0, -1.3333332538604736, 322.58597930753234, 430.5762952441218)"/>
</svg>